<svg width="391" height="333" viewBox="0 0 391 333" fill="none" xmlns="http://www.w3.org/2000/svg">
<ellipse cx="14.6941" cy="16.1635" rx="14.6941" ry="16.1635" fill="#D9FCFD" fill-opacity="0.7"/>
<ellipse cx="14.6941" cy="257.147" rx="14.6941" ry="16.1635" fill="#D9FCFD" fill-opacity="0.7"/>
<ellipse cx="14.6941" cy="136.655" rx="14.6941" ry="16.1635" fill="#D9FCFD" fill-opacity="0.7"/>
<circle cx="14.6941" cy="76.4093" r="14.6941" fill="#D9FCFD" fill-opacity="0.7"/>
<circle cx="14.6941" cy="317.392" r="14.6941" fill="#D9FCFD" fill-opacity="0.7"/>
<circle cx="14.6941" cy="196.901" r="14.6941" fill="#D9FCFD" fill-opacity="0.7"/>
<ellipse cx="74.9399" cy="76.4093" rx="16.1635" ry="14.6941" fill="#D9FCFD" fill-opacity="0.7"/>
<ellipse cx="74.9399" cy="317.392" rx="16.1635" ry="14.6941" fill="#D9FCFD" fill-opacity="0.7"/>
<ellipse cx="74.9399" cy="196.901" rx="16.1635" ry="14.6941" fill="#D9FCFD" fill-opacity="0.7"/>
<circle cx="135.185" cy="76.4093" r="14.6941" fill="#D9FCFD" fill-opacity="0.7"/>
<circle cx="135.185" cy="317.392" r="14.6941" fill="#D9FCFD" fill-opacity="0.7"/>
<circle cx="135.185" cy="196.901" r="14.6941" fill="#D9FCFD" fill-opacity="0.7"/>
<ellipse cx="195.431" cy="76.4093" rx="16.1635" ry="14.6941" fill="#D9FCFD" fill-opacity="0.7"/>
<ellipse cx="315.923" cy="76.4093" rx="16.1635" ry="14.6941" fill="#D9FCFD" fill-opacity="0.7"/>
<ellipse cx="195.431" cy="317.392" rx="16.1635" ry="14.6941" fill="#D9FCFD" fill-opacity="0.7"/>
<ellipse cx="315.923" cy="317.392" rx="16.1635" ry="14.6941" fill="#D9FCFD" fill-opacity="0.7"/>
<ellipse cx="195.431" cy="196.901" rx="16.1635" ry="14.6941" fill="#D9FCFD" fill-opacity="0.7"/>
<ellipse cx="315.923" cy="196.901" rx="16.1635" ry="14.6941" fill="#D9FCFD" fill-opacity="0.7"/>
<circle cx="255.677" cy="76.4093" r="14.6941" fill="#D9FCFD" fill-opacity="0.7"/>
<circle cx="376.169" cy="76.4093" r="14.6941" fill="#D9FCFD" fill-opacity="0.7"/>
<circle cx="255.677" cy="317.392" r="14.6941" fill="#D9FCFD" fill-opacity="0.7"/>
<circle cx="376.169" cy="317.392" r="14.6941" fill="#D9FCFD" fill-opacity="0.7"/>
<circle cx="255.677" cy="196.901" r="14.6941" fill="#D9FCFD" fill-opacity="0.7"/>
<circle cx="376.169" cy="196.901" r="14.6941" fill="#D9FCFD" fill-opacity="0.7"/>
<circle cx="74.9399" cy="16.1635" r="16.1635" fill="#D9FCFD" fill-opacity="0.7"/>
<circle cx="74.9399" cy="257.147" r="16.1635" fill="#D9FCFD" fill-opacity="0.7"/>
<circle cx="74.9399" cy="136.655" r="16.1635" fill="#D9FCFD" fill-opacity="0.7"/>
<ellipse cx="135.185" cy="16.1635" rx="14.6941" ry="16.1635" fill="#D9FCFD" fill-opacity="0.7"/>
<ellipse cx="135.185" cy="257.147" rx="14.6941" ry="16.1635" fill="#D9FCFD" fill-opacity="0.7"/>
<ellipse cx="135.185" cy="136.655" rx="14.6941" ry="16.1635" fill="#D9FCFD" fill-opacity="0.7"/>
<circle cx="195.431" cy="16.1635" r="16.1635" fill="#D9FCFD" fill-opacity="0.7"/>
<circle cx="315.923" cy="16.1635" r="16.1635" fill="#D9FCFD" fill-opacity="0.7"/>
<circle cx="195.431" cy="257.147" r="16.1635" fill="#D9FCFD" fill-opacity="0.7"/>
<circle cx="315.923" cy="257.147" r="16.1635" fill="#D9FCFD" fill-opacity="0.7"/>
<circle cx="195.431" cy="136.655" r="16.1635" fill="#D9FCFD" fill-opacity="0.7"/>
<circle cx="315.923" cy="136.655" r="16.1635" fill="#D9FCFD" fill-opacity="0.7"/>
<ellipse cx="255.677" cy="16.1635" rx="14.6941" ry="16.1635" fill="#D9FCFD" fill-opacity="0.7"/>
<ellipse cx="376.169" cy="16.1635" rx="14.6941" ry="16.1635" fill="#D9FCFD" fill-opacity="0.7"/>
<ellipse cx="255.677" cy="257.147" rx="14.6941" ry="16.1635" fill="#D9FCFD" fill-opacity="0.7"/>
<ellipse cx="376.169" cy="257.147" rx="14.6941" ry="16.1635" fill="#D9FCFD" fill-opacity="0.7"/>
<ellipse cx="255.677" cy="136.655" rx="14.6941" ry="16.1635" fill="#D9FCFD" fill-opacity="0.7"/>
<ellipse cx="376.169" cy="136.655" rx="14.6941" ry="16.1635" fill="#D9FCFD" fill-opacity="0.7"/>
</svg>
