<svg width="140" height="119" viewBox="0 0 140 119" fill="none" xmlns="http://www.w3.org/2000/svg">
<ellipse cx="5.24735" cy="5.77209" rx="5.24735" ry="5.77209" fill="#808080" fill-opacity="0.39"/>
<ellipse cx="5.24735" cy="91.8287" rx="5.24735" ry="5.77209" fill="#808080" fill-opacity="0.39"/>
<ellipse cx="5.24735" cy="48.8004" rx="5.24735" ry="5.77209" fill="#808080" fill-opacity="0.39"/>
<circle cx="5.24735" cy="27.2862" r="5.24735" fill="#808080" fill-opacity="0.39"/>
<circle cx="5.24735" cy="113.343" r="5.24735" fill="#808080" fill-opacity="0.39"/>
<circle cx="5.24735" cy="70.3147" r="5.24735" fill="#808080" fill-opacity="0.39"/>
<ellipse cx="26.7613" cy="27.2862" rx="5.77209" ry="5.24735" fill="#808080" fill-opacity="0.39"/>
<ellipse cx="26.7613" cy="113.343" rx="5.77209" ry="5.24735" fill="#808080" fill-opacity="0.39"/>
<ellipse cx="26.7613" cy="70.3147" rx="5.77209" ry="5.24735" fill="#808080" fill-opacity="0.39"/>
<circle cx="48.2747" cy="27.2862" r="5.24735" fill="#808080" fill-opacity="0.39"/>
<circle cx="48.2747" cy="113.343" r="5.24735" fill="#808080" fill-opacity="0.39"/>
<circle cx="48.2747" cy="70.3147" r="5.24735" fill="#808080" fill-opacity="0.39"/>
<ellipse cx="69.7897" cy="27.2862" rx="5.77209" ry="5.24735" fill="#808080" fill-opacity="0.39"/>
<ellipse cx="112.819" cy="27.2862" rx="5.77209" ry="5.24735" fill="#808080" fill-opacity="0.39"/>
<ellipse cx="69.7897" cy="113.343" rx="5.77209" ry="5.24735" fill="#808080" fill-opacity="0.39"/>
<ellipse cx="112.819" cy="113.343" rx="5.77209" ry="5.24735" fill="#808080" fill-opacity="0.39"/>
<ellipse cx="69.7897" cy="70.3147" rx="5.77209" ry="5.24735" fill="#808080" fill-opacity="0.39"/>
<ellipse cx="112.819" cy="70.3147" rx="5.77209" ry="5.24735" fill="#808080" fill-opacity="0.39"/>
<circle cx="91.304" cy="27.2862" r="5.24735" fill="#808080" fill-opacity="0.39"/>
<circle cx="134.332" cy="27.2862" r="5.24735" fill="#808080" fill-opacity="0.39"/>
<circle cx="91.304" cy="113.343" r="5.24735" fill="#808080" fill-opacity="0.39"/>
<circle cx="134.332" cy="113.343" r="5.24735" fill="#808080" fill-opacity="0.39"/>
<circle cx="91.304" cy="70.3147" r="5.24735" fill="#808080" fill-opacity="0.39"/>
<circle cx="134.332" cy="70.3147" r="5.24735" fill="#808080" fill-opacity="0.39"/>
<circle cx="26.7613" cy="5.77209" r="5.77209" fill="#808080" fill-opacity="0.39"/>
<circle cx="26.7613" cy="91.8287" r="5.77209" fill="#808080" fill-opacity="0.39"/>
<circle cx="26.7613" cy="48.8004" r="5.77209" fill="#808080" fill-opacity="0.39"/>
<ellipse cx="48.2747" cy="5.77209" rx="5.24735" ry="5.77209" fill="#808080" fill-opacity="0.39"/>
<ellipse cx="48.2747" cy="91.8287" rx="5.24735" ry="5.77209" fill="#808080" fill-opacity="0.39"/>
<ellipse cx="48.2747" cy="48.8004" rx="5.24735" ry="5.77209" fill="#808080" fill-opacity="0.39"/>
<circle cx="69.7897" cy="5.77209" r="5.77209" fill="#808080" fill-opacity="0.39"/>
<circle cx="112.819" cy="5.77209" r="5.77209" fill="#808080" fill-opacity="0.39"/>
<circle cx="69.7897" cy="91.8287" r="5.77209" fill="#808080" fill-opacity="0.39"/>
<circle cx="112.819" cy="91.8287" r="5.77209" fill="#808080" fill-opacity="0.39"/>
<circle cx="69.7897" cy="48.8004" r="5.77209" fill="#808080" fill-opacity="0.39"/>
<circle cx="112.819" cy="48.8004" r="5.77209" fill="#808080" fill-opacity="0.39"/>
<ellipse cx="91.304" cy="5.77209" rx="5.24735" ry="5.77209" fill="#808080" fill-opacity="0.39"/>
<ellipse cx="134.332" cy="5.77209" rx="5.24735" ry="5.77209" fill="#808080" fill-opacity="0.39"/>
<ellipse cx="91.304" cy="91.8287" rx="5.24735" ry="5.77209" fill="#808080" fill-opacity="0.39"/>
<ellipse cx="134.332" cy="91.8287" rx="5.24735" ry="5.77209" fill="#808080" fill-opacity="0.39"/>
<ellipse cx="91.304" cy="48.8004" rx="5.24735" ry="5.77209" fill="#808080" fill-opacity="0.39"/>
<ellipse cx="134.332" cy="48.8004" rx="5.24735" ry="5.77209" fill="#808080" fill-opacity="0.39"/>
</svg>
